<svg width="426.667" height="426.667" xmlns="http://www.w3.org/2000/svg">

 <g>
  <title>Layer 1</title>
  <g id="svg_1">
   <g id="svg_2">
    <g id="svg_3">
     <path fill="#ffffff" id="svg_4" d="m42.667,85.333l-42.667,0l0,298.667c0,23.573 19.093,42.667 42.667,42.667l298.667,0l0,-42.667l-298.667,0l0,-298.667z"/>
     <path fill="#ffffff" id="svg_5" d="m384,0l-256,0c-23.573,0 -42.667,19.093 -42.667,42.667l0,256c0,23.573 19.093,42.667 42.667,42.667l256,0c23.573,0 42.667,-19.093 42.667,-42.667l0,-256c0,-23.574 -19.094,-42.667 -42.667,-42.667zm-21.333,192l-85.333,0l0,85.333l-42.667,0l0,-85.333l-85.333,0l0,-42.667l85.333,0l0,-85.333l42.667,0l0,85.333l85.333,0l0,42.667z"/>
    </g>
   </g>
  </g>
  <g id="svg_6"/>
  <g id="svg_7"/>
  <g id="svg_8"/>
  <g id="svg_9"/>
  <g id="svg_10"/>
  <g id="svg_11"/>
  <g id="svg_12"/>
  <g id="svg_13"/>
  <g id="svg_14"/>
  <g id="svg_15"/>
  <g id="svg_16"/>
  <g id="svg_17"/>
  <g id="svg_18"/>
  <g id="svg_19"/>
  <g id="svg_20"/>
 </g>
</svg>