<svg width="24" height="24" xmlns="http://www.w3.org/2000/svg">

 <g>
  <title>Layer 1</title>
  <path fill="#3ea6ff" id="svg_1" d="m1.75,23l2.5,0c0.965,0 1.75,-0.785 1.75,-1.75l0,-11.5c0,-0.965 -0.785,-1.75 -1.75,-1.75l-2.5,0c-0.965,0 -1.75,0.785 -1.75,1.75l0,11.5c0,0.965 0.785,1.75 1.75,1.75z"/>
  <path fill="#3ea6ff" id="svg_2" d="m12.781,0.75c-1,0 -1.5,0.5 -1.5,3c0,2.376 -2.301,4.288 -3.781,5.273l0,12.388c1.601,0.741 4.806,1.839 9.781,1.839l1.6,0c1.95,0 3.61,-1.4 3.94,-3.32l1.12,-6.5c0.42,-2.45 -1.46,-4.68 -3.94,-4.68l-4.72,0s0.75,-1.5 0.75,-4c0,-3 -2.25,-4 -3.25,-4z"/>
 </g>
</svg>