<svg width="512" height="512" xmlns="http://www.w3.org/2000/svg">

 <g>
  <title>Layer 1</title>
  <g id="svg_1">
   <g id="svg_2">
    <path fill="#ffffff" id="svg_3" d="m437.397,45.568c-3.733,-2.176 -92.16,-52.459 -191.317,-0.448c-61.035,32.043 -116.843,15.061 -139.413,5.504l0,-29.291c0,-11.776 -9.536,-21.333 -21.334,-21.333c-11.797,0 -21.333,9.557 -21.333,21.333l0,42.667l0,213.739l0,212.928c0,11.797 9.536,21.333 21.333,21.333c11.797,0 21.333,-9.536 21.333,-21.333l0,-181.014c16.832,5.419 39.168,10.453 65.195,10.432c28.203,0 60.544,-5.867 94.059,-23.445c77.589,-40.789 146.987,-2.219 150.08,-0.427c6.549,3.776 14.677,3.819 21.291,0.021c6.635,-3.819 10.709,-10.859 10.709,-18.496l0,-213.738c0,-7.573 -4.032,-14.613 -10.603,-18.432z"/>
   </g>
  </g>
  <g id="svg_4"/>
  <g id="svg_5"/>
  <g id="svg_6"/>
  <g id="svg_7"/>
  <g id="svg_8"/>
  <g id="svg_9"/>
  <g id="svg_10"/>
  <g id="svg_11"/>
  <g id="svg_12"/>
  <g id="svg_13"/>
  <g id="svg_14"/>
  <g id="svg_15"/>
  <g id="svg_16"/>
  <g id="svg_17"/>
  <g id="svg_18"/>
 </g>
</svg>