<svg width="512" height="512.00578" xmlns="http://www.w3.org/2000/svg">
 <g>
  <title>Layer 1</title>
  <path d="m507.52344,148.89063l-138.66797,-144c-4.52344,-4.69141 -11.45703,-6.16407 -17.49219,-3.73438c-6.05859,2.45313 -10.02734,8.32031 -10.02734,14.84766l0,69.33593l-5.33203,0c-114.6875,0 -208,93.3125 -208,208l0,32c0,7.42188 5.22656,13.60938 12.45703,15.29688c1.17578,0.29687 2.34765,0.42578 3.51953,0.42578c6.03906,0 11.82031,-3.54297 14.61328,-9.10938c29.99609,-60.01171 90.30469,-97.28125 157.39844,-97.28125l25.34375,0l0,69.33204c0,6.53125 3.96875,12.39843 10.02734,14.82812c5.99609,2.45313 12.96875,0.96094 17.49219,-3.73437l138.66797,-144c5.97265,-6.20704 5.97265,-15.97657 0,-22.20704l0,0.00001zm0,0" id="svg_1" fill="#ffffff"/>
  <path d="m448.00391,512.00391l-384,0c-35.28516,0 -64,-28.71094 -64,-64l0,-298.66407c0,-35.28515 28.71484,-64 64,-64l64,0c11.79687,0 21.33203,9.53516 21.33203,21.33204s-9.53516,21.33203 -21.33203,21.33203l-64,0c-11.77735,0 -21.33594,9.55859 -21.33594,21.33593l0,298.66407c0,11.77734 9.55859,21.33593 21.33594,21.33593l384,0c11.77343,0 21.33203,-9.55859 21.33203,-21.33593l0,-170.66407c0,-11.79687 9.53515,-21.33593 21.33203,-21.33593c11.80078,0 21.33594,9.53906 21.33594,21.33593l0,170.66407c0,35.28906 -28.71485,64 -64,64zm0,0" id="svg_2" fill="#ffffff"/>
 </g>

</svg>