<svg width="512" height="512" xmlns="http://www.w3.org/2000/svg">

 <g>
  <title>Layer 1</title>
  <g id="svg_1">
   <g id="svg_2">
    <path fill="#909090" id="svg_3" d="m376,30c-27.783,0 -53.255,8.804 -75.707,26.168c-21.525,16.647 -35.856,37.85 -44.293,53.268c-8.437,-15.419 -22.768,-36.621 -44.293,-53.268c-22.452,-17.364 -47.924,-26.168 -75.707,-26.168c-77.532,0 -136,63.417 -136,147.514c0,90.854 72.943,153.015 183.369,247.118c18.752,15.981 40.007,34.095 62.099,53.414c2.912,2.55 6.652,3.954 10.532,3.954s7.62,-1.404 10.532,-3.953c22.094,-19.322 43.348,-37.435 62.111,-53.425c110.414,-94.093 183.357,-156.254 183.357,-247.108c0,-84.097 -58.468,-147.514 -136,-147.514z"/>
   </g>
  </g>
  <g id="svg_4"/>
  <g id="svg_5"/>
  <g id="svg_6"/>
  <g id="svg_7"/>
  <g id="svg_8"/>
  <g id="svg_9"/>
  <g id="svg_10"/>
  <g id="svg_11"/>
  <g id="svg_12"/>
  <g id="svg_13"/>
  <g id="svg_14"/>
  <g id="svg_15"/>
  <g id="svg_16"/>
  <g id="svg_17"/>
  <g id="svg_18"/>
 </g>
</svg>