<svg width="388.227" height="388.227" xmlns="http://www.w3.org/2000/svg">

 <g>
  <title>Layer 1</title>
  <g id="svg_1">
   <path fill="#ffffff" id="svg_2" d="m194.113,190.505c36.691,0 66.438,-36.129 66.438,-80.695c0,-44.567 -9.768,-80.696 -66.438,-80.696c-56.672,0 -66.438,36.129 -66.438,80.696c0.001,44.566 29.747,80.695 66.438,80.695z"/>
   <path fill="#ffffff" id="svg_3" d="m319.455,310.459c-1.229,-77.637 -11.369,-99.759 -88.959,-113.763c0,0 -10.924,13.917 -36.381,13.917c-25.457,0 -36.379,-13.917 -36.379,-13.917c-76.744,13.85 -87.502,35.645 -88.916,111.24c-0.115,6.173 -0.168,6.497 -0.189,5.78c0.004,1.343 0.01,3.826 0.01,8.157c0,0 18.473,37.239 125.475,37.239s125.477,-37.239 125.477,-37.239c0,-2.782 0.002,-4.718 0.004,-6.033c-0.021,0.443 -0.064,-0.416 -0.142,-5.381z"/>
   <path fill="#ffffff" id="svg_4" d="m286.313,176.097c29.801,0 53.959,-29.343 53.959,-65.539c0,-36.197 -7.932,-65.54 -53.959,-65.54c-7.742,0 -14.404,0.833 -20.135,2.388c10.631,19.598 12.088,43.402 12.088,62.403c0,21.514 -5.832,42.054 -16.572,59.061c7.382,4.61 15.747,7.227 24.619,7.227z"/>
   <path fill="#ffffff" id="svg_5" d="m388.111,273.521c-1,-63.055 -9.234,-81.022 -72.252,-92.396c0,0 -8.871,11.304 -29.547,11.304c-0.855,0 -1.684,-0.026 -2.5,-0.063c13.137,5.923 25.088,14.17 33.889,26.238c15.215,20.863 18.713,48.889 19.435,90.062c42.397,-8.378 51.086,-25.873 51.086,-25.873c0,-2.28 0,-3.844 0.004,-4.913c-0.017,0.376 -0.052,-0.298 -0.115,-4.359z"/>
   <path fill="#ffffff" id="svg_6" d="m101.912,176.097c8.873,0 17.236,-2.617 24.621,-7.226c-10.74,-17.007 -16.572,-37.547 -16.572,-59.061c0,-19.002 1.457,-42.806 12.086,-62.403c-5.73,-1.555 -12.391,-2.388 -20.135,-2.388c-46.027,0 -53.957,29.343 -53.957,65.54c0,36.195 24.158,65.538 53.957,65.538z"/>
   <path fill="#ffffff" id="svg_7" d="m104.412,192.365c-0.814,0.037 -1.643,0.063 -2.5,0.063c-20.676,0 -29.547,-11.304 -29.547,-11.304c-63.016,11.374 -71.252,29.34 -72.25,92.396c-0.065,4.062 -0.098,4.735 -0.115,4.358c0.002,1.069 0.004,2.633 0.004,4.913c0,0 8.69,17.495 51.084,25.873c0.725,-41.172 4.221,-69.198 19.438,-90.062c8.8,-12.066 20.749,-20.314 33.886,-26.237z"/>
  </g>
  <g id="svg_8"/>
  <g id="svg_9"/>
  <g id="svg_10"/>
  <g id="svg_11"/>
  <g id="svg_12"/>
  <g id="svg_13"/>
  <g id="svg_14"/>
  <g id="svg_15"/>
  <g id="svg_16"/>
  <g id="svg_17"/>
  <g id="svg_18"/>
  <g id="svg_19"/>
  <g id="svg_20"/>
  <g id="svg_21"/>
  <g id="svg_22"/>
 </g>
</svg>