<svg width="384" height="384" xmlns="http://www.w3.org/2000/svg">
 <g>
  <title>background</title>
  <rect x="-1" y="-1" width="802" height="602" id="canvas_background" fill="none"/>
 </g>

 <g>
  <title>Layer 1</title>
  <path stroke="null" d="m368,157.66797l-352,0c-8.83203,0 -16,-7.83997 -16,-17.5s7.16797,-17.5 16,-17.5l352,0c8.83203,0 16,7.83997 16,17.5s-7.16797,17.5 -16,17.5zm0,0" id="svg_1" fill="#707070"/>
  <path d="m368,32l-352,0c-8.83203,0 -16,-7.16797 -16,-16s7.16797,-16 16,-16l352,0c8.83203,0 16,7.16797 16,16s-7.16797,16 -16,16zm0,0" id="svg_2" fill="#707070"/>
  <path stroke="null" d="m368,281.33203l-352,0c-8.83203,0 -16,-8.06397 -16,-18s7.16797,-18 16,-18l352,0c8.83203,0 16,8.06397 16,18s-7.16797,18 -16,18zm0,0" id="svg_3" fill="#707070"/>
 </g>
</svg>