<svg width="512" height="512" xmlns="http://www.w3.org/2000/svg">

 <g>
  <title>Layer 1</title>
  <g id="Solid">
   <path fill="#ffffff" id="svg_1" d="m260.52,329.539a24,24 0 0 0 33.941,33.941l90.51,-90.51a24,24 0 0 0 0,-33.941l-90.51,-90.509a24,24 0 0 0 -33.941,0a24,24 0 0 0 0,33.941l49.539,49.539l-262.059,0a24,24 0 0 0 -24,24a24,24 0 0 0 24,24l262.059,0l-49.539,49.539z"/>
   <path fill="#ffffff" id="svg_2" d="m448,24l-224,0a40,40 0 0 0 -40,40l0,32a24,24 0 0 0 48,0l0,-24l208,0l0,368l-208,0l0,-24a24,24 0 0 0 -48,0l0,32a40,40 0 0 0 40,40l224,0a40,40 0 0 0 40,-40l0,-384a40,40 0 0 0 -40,-40z"/>
  </g>
 </g>
</svg>