<svg width="490" height="490" xmlns="http://www.w3.org/2000/svg">

 <g>
  <title>Layer 1</title>
  <g id="svg_1">
   <g id="svg_2">
    <g id="svg_3">
     <path fill="#ffffff" id="svg_4" d="m176.7,165l-81.5,103c-8.4,-3.7 -17.6,-5.8 -27.3,-5.8c-37.4,0 -67.9,30.5 -67.9,67.9s30.5,67.9 67.9,67.9s67.9,-30.5 67.9,-67.9c0,-15.3 -5.1,-29.5 -13.7,-40.9l81.5,-103c7.5,3.9 15.7,6.8 24.2,8.4l0,145.5c-29.2,7.6 -50.8,34.2 -50.8,65.7c0,37.5 30.5,67.9 67.9,67.9s67.9,-30.5 67.9,-67.9c0,-31.5 -21.6,-58.1 -50.8,-65.7l0,-145.4c8.3,-1.6 16.1,-4.3 23.4,-8l81.6,103.5c-8.2,11.2 -13.1,25 -13.1,40c0,37.4 30.5,67.9 67.9,67.9s68.2,-30.5 68.2,-68c0,-37.4 -30.5,-67.9 -67.9,-67.9c-10.1,0 -19.7,2.2 -28.3,6.2l-81.1,-102.8c13.9,-15.9 22.4,-36.6 22.4,-59.3c0,-49.6 -40.4,-90 -90,-90s-90,40.4 -90,90c-0.1,22.4 8.1,42.9 21.6,58.7zm-108.8,198.8c-18.5,0 -33.6,-15.1 -33.6,-33.6s15.1,-33.6 33.6,-33.6s33.6,15.1 33.6,33.6s-15,33.6 -33.6,33.6zm210.7,42.2c0,18.5 -15.1,33.6 -33.6,33.6s-33.6,-15.1 -33.6,-33.6c0,-18.3 14.7,-33.2 33,-33.6c0.2,0 0.4,0 0.7,0c0.2,0 0.4,0 0.7,0c18.1,0.3 32.8,15.3 32.8,33.6zm177.1,-75.9c0,18.5 -15.1,33.6 -33.6,33.6s-33.6,-15.1 -33.6,-33.6s15.1,-33.6 33.6,-33.6s33.6,15.1 33.6,33.6zm-210.7,-279.5c30.7,0 55.7,25 55.7,55.7s-25,55.7 -55.7,55.7s-55.7,-25 -55.7,-55.7s25,-55.7 55.7,-55.7z"/>
    </g>
   </g>
   <g id="svg_5"/>
   <g id="svg_6"/>
   <g id="svg_7"/>
   <g id="svg_8"/>
   <g id="svg_9"/>
   <g id="svg_10"/>
   <g id="svg_11"/>
   <g id="svg_12"/>
   <g id="svg_13"/>
   <g id="svg_14"/>
   <g id="svg_15"/>
   <g id="svg_16"/>
   <g id="svg_17"/>
   <g id="svg_18"/>
   <g id="svg_19"/>
  </g>
  <g id="svg_20"/>
  <g id="svg_21"/>
  <g id="svg_22"/>
  <g id="svg_23"/>
  <g id="svg_24"/>
  <g id="svg_25"/>
  <g id="svg_26"/>
  <g id="svg_27"/>
  <g id="svg_28"/>
  <g id="svg_29"/>
  <g id="svg_30"/>
  <g id="svg_31"/>
  <g id="svg_32"/>
  <g id="svg_33"/>
  <g id="svg_34"/>
 </g>
</svg>