<svg width="45.532" height="45.532" xmlns="http://www.w3.org/2000/svg">

 <g>
  <title>Layer 1</title>
  <g id="svg_1">
   <path fill="#ffffff" id="svg_2" d="m22.766,0.001c-12.572,0 -22.766,10.192 -22.766,22.765s10.193,22.765 22.766,22.765c12.574,0 22.766,-10.192 22.766,-22.765s-10.192,-22.765 -22.766,-22.765zm0,6.807c4.16,0 7.531,3.372 7.531,7.53c0,4.159 -3.371,7.53 -7.531,7.53c-4.158,0 -7.529,-3.371 -7.529,-7.53c0,-4.158 3.371,-7.53 7.529,-7.53zm-0.005,32.771c-4.149,0 -7.949,-1.511 -10.88,-4.012c-0.714,-0.609 -1.126,-1.502 -1.126,-2.439c0,-4.217 3.413,-7.592 7.631,-7.592l8.762,0c4.219,0 7.619,3.375 7.619,7.592c0,0.938 -0.41,1.829 -1.125,2.438c-2.93,2.502 -6.731,4.013 -10.881,4.013z"/>
  </g>
  <g id="svg_3"/>
  <g id="svg_4"/>
  <g id="svg_5"/>
  <g id="svg_6"/>
  <g id="svg_7"/>
  <g id="svg_8"/>
  <g id="svg_9"/>
  <g id="svg_10"/>
  <g id="svg_11"/>
  <g id="svg_12"/>
  <g id="svg_13"/>
  <g id="svg_14"/>
  <g id="svg_15"/>
  <g id="svg_16"/>
  <g id="svg_17"/>
 </g>
</svg>