<svg width="512.081" height="512.081" xmlns="http://www.w3.org/2000/svg">

 <g>
  <title>background</title>
  <rect fill="none" id="canvas_background" height="602" width="802" y="-1" x="-1"/>
 </g>
 <g>
  <title>Layer 1</title>
  <g id="svg_1">
   <g id="Flame">
    <path fill="#d3d3d3" id="svg_2" d="m327.422,490.31c18.552,-37.104 40.66,-100.284 9.776,-127.528c-28.468,4.275 -51.488,4.301 -70.218,0.096c-47.164,-10.59 -62.093,-47.957 -49.108,-95.81c-63.456,57.989 -66.135,143.494 -42.611,225.83c3.821,13.375 -11.15,24.33 -22.743,16.602c-3.948,-2.632 -96.68,-65.567 -96.68,-162.481c0,-158.769 180,-165.6 180,-332c0,-12.711 14.894,-19.668 24.641,-11.492c71.928,60.337 202.812,205.378 195.467,338.776c-3.641,66.132 -39.57,122.385 -106.788,167.197c-12.714,8.473 -28.59,-5.483 -21.736,-19.19z"/>
   </g>
  </g>
 </g>
</svg>