<svg width="512" height="512" xmlns="http://www.w3.org/2000/svg">

 <g>
  <title>Layer 1</title>
  <g id="svg_1">
   <g id="svg_2">
    <path fill="#c4c4c4" id="svg_3" d="m468.455,160.708c1.691,-8.576 2.545,-17.185 2.545,-25.708c0,-74.439 -60.561,-135 -135,-135c-47.948,0 -92.023,25.58 -116.13,66.298c-10.8,-4.145 -22.284,-6.298 -33.87,-6.298c-47.601,0 -87.137,35.193 -93.96,80.924c-51.322,6.847 -91.04,50.91 -91.04,104.076c0,57.897 47.103,105 105,105l90,0l0,-18.825c-13.739,-1.412 -26.002,-8.818 -33.444,-20.412c-9.914,-15.438 -9.53,-35.123 0.981,-50.144l55.597,-79.424c8.417,-12.021 22.197,-19.195 36.866,-19.195s28.45,7.174 36.863,19.191l55.598,79.425c10.514,15.023 10.897,34.708 0.98,50.151c-7.439,11.589 -19.702,18.995 -33.441,20.407l0,18.826l90,0c57.897,0 105,-47.103 105,-105c0,-33.248 -16.058,-64.614 -42.545,-84.292z"/>
   </g>
   <path fill="#c4c4c4" id="svg_4" d="m187.801,294.557c2.814,4.382 7.818,6.865 13.026,6.865l25.173,0l0,195.578c0,8.284 6.716,15 15,15l30,0c8.284,0 15,-6.716 15,-15l0,-195.579l25.173,0c5.208,0 10.212,-2.482 13.026,-6.865c3.338,-5.199 3.169,-11.759 -0.315,-16.737l-55.596,-79.423c-2.805,-4.005 -7.398,-6.396 -12.288,-6.396s-9.483,2.391 -12.289,6.398l-55.595,79.422c-3.483,4.977 -3.653,11.538 -0.315,16.737z"/>
  </g>
 </g>
</svg>