<svg width="492" height="492" xmlns="http://www.w3.org/2000/svg">
 <g>
  <title>background</title>
  <rect fill="none" id="canvas_background" height="494" width="494" y="-1" x="-1"/>
 </g>

 <g>
  <title>Layer 1</title>
  <g id="svg_1">
   <g id="svg_2">
    <path fill="#ffffff" id="svg_3" d="m300.188,246l183.952,-183.96c5.06,-5.064 7.852,-11.82 7.86,-19.024c0,-7.208 -2.792,-13.972 -7.86,-19.028l-16.12,-16.116c-5.068,-5.076 -11.824,-7.856 -19.036,-7.856c-7.2,0 -13.956,2.78 -19.024,7.856l-183.952,183.948l-183.96,-183.948c-5.06,-5.076 -11.82,-7.856 -19.028,-7.856c-7.2,0 -13.96,2.78 -19.02,7.856l-16.128,16.116c-10.496,10.496 -10.496,27.568 0,38.052l183.956,183.96l-183.956,183.952c-5.064,5.072 -7.852,11.828 -7.852,19.032c0,7.204 2.788,13.96 7.852,19.028l16.124,16.116c5.06,5.072 11.824,7.856 19.02,7.856c7.208,0 13.968,-2.784 19.028,-7.856l183.96,-183.952l183.952,183.952c5.068,5.072 11.824,7.856 19.024,7.856l0.008,0c7.204,0 13.96,-2.784 19.028,-7.856l16.12,-16.116c5.06,-5.064 7.852,-11.824 7.852,-19.028c0,-7.204 -2.792,-13.96 -7.852,-19.028l-183.948,-183.956z"/>
   </g>
  </g>
  <g id="svg_4"/>
  <g id="svg_5"/>
  <g id="svg_6"/>
  <g id="svg_7"/>
  <g id="svg_8"/>
  <g id="svg_9"/>
  <g id="svg_10"/>
  <g id="svg_11"/>
  <g id="svg_12"/>
  <g id="svg_13"/>
  <g id="svg_14"/>
  <g id="svg_15"/>
  <g id="svg_16"/>
  <g id="svg_17"/>
  <g id="svg_18"/>
 </g>
</svg>